# xmcd CD database file
# Copyright (C) 1993-2000  Ti Kan
#
# Track frame offsets:
#	150
#	11872
#	22055
#	34690
#	45287
#	56457
#	67587
#	78077
#	91982
#	105072
#	115750
#	127115
#	138700
#	150477
#	160960
#	175255
#	186152
#	194702
#	205662
#	216700
#	226925
#	238397
#	249075
#	259697
#
# Disc length: 3618 seconds
#
# Revision: 1
# Processed by: cddbd v1.4PL0 Copyright (c) Steve Scherf et al.
# Submitted via: xmcd 2.6 PL0
#
DISCID=420e2018
DTITLE=Patsy Cline/Three Cigarettes In An Ashtray
DYEAR=1900
DGENRE=
TTITLE0=Walkin' After Midnight
TTITLE1=Three Cigarettes In An Ashtray
TTITLE2=Yes, I Understand
TTITLE3=Gotta Lotta Rhythm in my Soul
TTITLE4=Just Out of Reach
TTITLE5=I Can't Forget You
TTITLE6=I Love You, Honey
TTITLE7=A Church, A Courtroom, and then Goodbye
TTITLE8=If I Could See The World (Through the Eyes of a Child)
TTITLE9=Stop, Look, and Listen
TTITLE10=Crazy Dreams
TTITLE11=In Care of the Blues
TTITLE12=If I Could Only Stay Asleep
TTITLE13=Lovesick Blues
TTITLE14=Then You'll Know
TTITLE15=There He Goes
TTITLE16=Ain't No Wheels On This Ship
TTITLE17=Don't Ever Leave Me Again
TTITLE18=Stop The World (And Let Me Off)
TTITLE19=Walking Dream
TTITLE20=The Heart You Break May Be Your Own
TTITLE21=I Can See An Angel
TTITLE22=Honky Tonk Merry Go Round
TTITLE23=Today, Tomorrow, and Forever
EXTD=
EXTT0=
EXTT1=
EXTT2=
EXTT3=
EXTT4=
EXTT5=
EXTT6=
EXTT7=
EXTT8=
EXTT9=
EXTT10=
EXTT11=
EXTT12=
EXTT13=
EXTT14=
EXTT15=
EXTT16=
EXTT17=
EXTT18=
EXTT19=
EXTT20=
EXTT21=
EXTT22=
EXTT23=
PLAYORDER=
